<svg xmlns="http://www.w3.org/2000/svg" xmlns:xlink="http://www.w3.org/1999/xlink" width="100.0" height="100.0" viewBox="-97.07271999999995 32.73954000000004 0.020939999999995962 0.10691999999998814" preserveAspectRatio="xMinYMin meet"><g transform="matrix(1,0,0,-1,0,65.58600000000007)"><path fill-rule="evenodd" fill="#66cc99" stroke="#555555" stroke-width="0.0021383999999997627" opacity="0.6" d="M -97.05784050217832,32.75993757312322 L -97.05611050217831,32.74993757312317 L -97.05607705326238,32.749717894057234 L -97.05604177592214,32.74935971721079 L -97.05602999999995,32.749000000000024 L -97.05604177592214,32.74864028278926 L -97.05607705326238,32.74828210594281 L -97.05613568095772,32.74792700322894 L -97.05621740795536,32.74757649525196 L -97.05632188428773,32.747232082940855 L -97.05644866257114,32.74689524112202 L -97.05659719992151,32.74656741220382 L -97.05676686027914,32.746250000000025 L -97.05695691713228,32.745944363718415 L -97.05716655662835,32.74565181214047 L -97.05739488105881,32.745373598016975 L -97.05764091270342,32.745110912703495 L -97.05790359801689,32.74486488105889 L -97.0581818121404,32.74463655662842 L -97.05847436371835,32.74442691713236 L -97.05877999999994,32.74423686027921 L -97.05909741220374,32.744067199921595 L -97.05942524112194,32.74391866257121 L -97.05976208294078,32.7437918842878 L -97.06010649525189,32.743687407955434 L -97.06045700322886,32.743605680957806 L -97.06081210594274,32.74354705326247 L -97.06117028278918,32.74351177592221 L -97.06152999999995,32.743500000000026 L -97.06188971721072,32.74351177592221 L -97.06224789405715,32.74354705326247 L -97.06260299677103,32.743605680957806 L -97.06295350474801,32.743687407955434 L -97.06329791705912,32.7437918842878 L -97.06363475887795,32.74391866257121 L -97.06396258779615,32.744067199921595 L -97.06427999999995,32.74423686027921 L -97.06458563628155,32.74442691713236 L -97.06487818785949,32.74463655662842 L -97.065156401983,32.74486488105889 L -97.06541908729648,32.745110912703495 L -97.06566511894108,32.745373598016975 L -97.06589344337155,32.74565181214047 L -97.06610308286761,32.745944363718415 L -97.06629313972076,32.746250000000025 L -97.06646280007838,32.74656741220382 L -97.06661133742875,32.74689524112202 L -97.06673811571217,32.747232082940855 L -97.06684259204454,32.74757649525196 L -97.06687610155011,32.747708025458714 L -97.06832610155014,32.75370802545874 L -97.0683743190422,32.753927003228966 L -97.06843294673754,32.75428210594284 L -97.06846657431926,32.75461593979774 L -97.06874657431923,32.75861593979776 L -97.06874822407777,32.75864028278931 L -97.06875999999995,32.75900000000007 L -97.06874822407777,32.759359717210835 L -97.06871294673752,32.75971789405728 L -97.06865431904218,32.76007299677116 L -97.06857259204455,32.76042350474813 L -97.06846811571218,32.76076791705924 L -97.06834133742876,32.761104758878076 L -97.06819280007839,32.76143258779628 L -97.06802313972076,32.76175000000007 L -97.06783308286762,32.76205563628168 L -97.06762344337156,32.76234818785962 L -97.06739511894109,32.76262640198312 L -97.06714908729649,32.7628890872966 L -97.06688640198301,32.76313511894121 L -97.0666081878595,32.763363443371674 L -97.06631563628156,32.76357308286774 L -97.06600999999996,32.763763139720886 L -97.06569258779616,32.7639328000785 L -97.06536475887796,32.764081337428884 L -97.06502791705913,32.76420811571229 L -97.06468350474802,32.76431259204466 L -97.06433299677104,32.76439431904229 L -97.06397789405716,32.76445294673763 L -97.06361971721073,32.76448822407789 L -97.06325999999996,32.76450000000007 L -97.06290028278919,32.76448822407789 L -97.06254210594275,32.76445294673763 L -97.06218700322887,32.76439431904229 L -97.0618364952519,32.76431259204466 L -97.06149208294079,32.76420811571229 L -97.06115524112195,32.764081337428884 L -97.06082741220375,32.7639328000785 L -97.06050999999995,32.763763139720886 L -97.06020436371836,32.76357308286774 L -97.05991181214041,32.763363443371674 L -97.0596335980169,32.76313511894121 L -97.05937091270343,32.7628890872966 L -97.05912488105882,32.76262640198312 L -97.05889655662835,32.76234818785962 L -97.05868691713229,32.76205563628168 L -97.05849686027915,32.76175000000007 L -97.05832719992152,32.76143258779628 L -97.05817866257115,32.761104758878076 L -97.05805188428774,32.76076791705924 L -97.05794740795537,32.76042350474813 L -97.05786568095773,32.76007299677116 L -97.05784050217832,32.75993757312322 z" /><path fill-rule="evenodd" fill="#66cc99" stroke="#555555" stroke-width="0.0021383999999997627" opacity="0.6" d="M -97.05588686213618,32.837274656893484 L -97.05583686213613,32.83627465689351 L -97.05583556030665,32.83624724978627 L -97.05574556030665,32.83424724978626 L -97.05573999999994,32.83400000000006 L -97.05574061864554,32.83391750927964 L -97.05577061864558,32.83191750927963 L -97.05578177592217,32.83164028278929 L -97.05581705326242,32.83128210594284 L -97.05587568095775,32.830927003228965 L -97.05595740795539,32.83057649525199 L -97.05606188428776,32.83023208294088 L -97.05618866257117,32.829895241122045 L -97.05633719992154,32.82956741220384 L -97.05650686027917,32.82925000000005 L -97.05669691713231,32.82894436371844 L -97.05690655662838,32.8286518121405 L -97.05713488105884,32.828373598017 L -97.05738091270345,32.82811091270352 L -97.05764359801692,32.827864881058915 L -97.05792181214044,32.82763655662845 L -97.05821436371838,32.827426917132385 L -97.05851999999997,32.827236860279235 L -97.05883741220377,32.82706719992162 L -97.05916524112197,32.82691866257124 L -97.05950208294081,32.82679188428783 L -97.05984649525192,32.82668740795546 L -97.0601970032289,32.82660568095783 L -97.06055210594278,32.826547053262495 L -97.06091028278921,32.826511775922235 L -97.06126999999998,32.82650000000005 L -97.06162971721075,32.826511775922235 L -97.06198789405718,32.826547053262495 L -97.06234299677106,32.82660568095783 L -97.06269350474804,32.82668740795546 L -97.06303791705915,32.82679188428783 L -97.06337475887798,32.82691866257124 L -97.06370258779619,32.82706719992162 L -97.06401999999999,32.827236860279235 L -97.06432563628158,32.827426917132385 L -97.06461818785952,32.82763655662845 L -97.06489640198303,32.827864881058915 L -97.06515908729651,32.82811091270352 L -97.06540511894111,32.828373598017 L -97.06563344337158,32.8286518121405 L -97.06584308286764,32.82894436371844 L -97.06603313972079,32.82925000000005 L -97.06620280007841,32.82956741220384 L -97.06635133742878,32.829895241122045 L -97.0664781157122,32.83023208294088 L -97.06658259204457,32.83057649525199 L -97.0666643190422,32.830927003228965 L -97.06672294673754,32.83128210594284 L -97.06675822407779,32.83164028278929 L -97.06676866948294,32.83187902927142 L -97.06687866948295,32.836879029271415 L -97.06687999999998,32.837000000000046 L -97.0668682240778,32.83735971721081 L -97.06683294673755,32.837717894057256 L -97.06677431904221,32.83807299677113 L -97.06669259204457,32.83842350474811 L -97.06658811571221,32.838767917059215 L -97.06646133742879,32.83910475887805 L -97.06631280007842,32.83943258779625 L -97.0661431397208,32.839750000000045 L -97.06595308286765,32.840055636281654 L -97.06574344337159,32.8403481878596 L -97.06551511894112,32.840626401983094 L -97.06526908729651,32.840889087296574 L -97.06500640198304,32.84113511894118 L -97.06472818785953,32.84136344337165 L -97.06443563628159,32.84157308286771 L -97.06412999999999,32.84176313972086 L -97.06381258779619,32.841932800078474 L -97.06348475887799,32.84208133742886 L -97.06314791705915,32.84220811571227 L -97.06280350474805,32.842312592044635 L -97.06245299677107,32.84239431904226 L -97.06209789405719,32.8424529467376 L -97.06173971721076,32.84248822407786 L -97.06137999999999,32.842500000000044 L -97.06102028278922,32.84248822407786 L -97.06066210594278,32.8424529467376 L -97.0603070032289,32.84239431904226 L -97.05995649525192,32.842312592044635 L -97.05961208294082,32.84220811571227 L -97.05927524112198,32.84208133742886 L -97.05894741220378,32.841932800078474 L -97.05862999999998,32.84176313972086 L -97.05832436371838,32.84157308286771 L -97.05803181214044,32.84136344337165 L -97.05775359801693,32.84113511894118 L -97.05749091270346,32.840889087296574 L -97.05724488105885,32.840626401983094 L -97.05701655662838,32.8403481878596 L -97.05680691713232,32.840055636281654 L -97.05661686027918,32.839750000000045 L -97.05644719992155,32.83943258779625 L -97.05629866257118,32.83910475887805 L -97.05617188428776,32.838767917059215 L -97.0560674079554,32.83842350474811 L -97.05598568095776,32.83807299677113 L -97.05592705326242,32.837717894057256 L -97.05589177592218,32.83735971721081 L -97.05588686213618,32.837274656893484 z" /></g></svg>